REM DIRINDEX 1\2,1\3,1\4,1\5
REM DIRNAME cjc044,folder01,folder02,folder03,folder04
TITLE ""
FILE "1800_186.mp3" MP3
  TRACK 01 AUDIO
    TITLE "2:cjc044_6552"
    INDEX 01 00:00:00
  TRACK 02 AUDIO
    TITLE "0:"
    INDEX 01 00:01:13
  TRACK 03 AUDIO
    TITLE "3:cjc044_6553"
    INDEX 01 00:01:60
  TRACK 04 AUDIO
    TITLE "0:"
    INDEX 01 00:03:06
  TRACK 05 AUDIO
    TITLE "4:cjc044_6554"
    INDEX 01 00:03:53
  TRACK 06 AUDIO
    TITLE "0:"
    INDEX 01 00:05:03
  TRACK 07 AUDIO
    TITLE "2:cjc044_6555"
    INDEX 01 00:06:53
  TRACK 08 AUDIO
    TITLE "0:"
    INDEX 01 00:07:72
  TRACK 09 AUDIO
    TITLE "3:cjc044_6556"
    INDEX 01 00:08:48
  TRACK 10 AUDIO
    TITLE "0:"
    INDEX 01 00:09:61
  TRACK 11 AUDIO
    TITLE "4:cjc044_6557"
    INDEX 01 00:10:33
  TRACK 12 AUDIO
    TITLE "0:"
    INDEX 01 00:11:58
  TRACK 13 AUDIO
    TITLE "2:cjc044_6558"
    INDEX 01 00:13:35
  TRACK 14 AUDIO
    TITLE "0:"
    INDEX 01 00:14:45
  TRACK 15 AUDIO
    TITLE "3:cjc044_6559"
    INDEX 01 00:15:19
  TRACK 16 AUDIO
    TITLE "0:"
    INDEX 01 00:16:34
  TRACK 17 AUDIO
    TITLE "4:cjc044_6560"
    INDEX 01 00:17:06
  TRACK 18 AUDIO
    TITLE "0:"
    INDEX 01 00:18:15
  TRACK 19 AUDIO
    TITLE "2:cjc044_6561"
    INDEX 01 00:19:65
  TRACK 20 AUDIO
    TITLE "0:"
    INDEX 01 00:21:25
  TRACK 21 AUDIO
    TITLE "3:cjc044_6562"
    INDEX 01 00:21:72
  TRACK 22 AUDIO
    TITLE "0:"
    INDEX 01 00:23:42
  TRACK 23 AUDIO
    TITLE "4:cjc044_6563"
    INDEX 01 00:24:14
  TRACK 24 AUDIO
    TITLE "0:"
    INDEX 01 00:25:48
  TRACK 25 AUDIO
    TITLE "2:cjc044_6564"
    INDEX 01 00:27:22
  TRACK 26 AUDIO
    TITLE "0:"
    INDEX 01 00:28:43
  TRACK 27 AUDIO
    TITLE "3:cjc044_6565"
    INDEX 01 00:29:15
  TRACK 28 AUDIO
    TITLE "0:"
    INDEX 01 00:30:24
  TRACK 29 AUDIO
    TITLE "4:cjc044_6566"
    INDEX 01 00:31:00
  TRACK 30 AUDIO
    TITLE "0:"
    INDEX 01 00:32:21
  TRACK 31 AUDIO
    TITLE "2:cjc044_6567"
    INDEX 01 00:33:68
  TRACK 32 AUDIO
    TITLE "0:"
    INDEX 01 00:35:12
  TRACK 33 AUDIO
    TITLE "3:cjc044_6568"
    INDEX 01 00:35:61
  TRACK 34 AUDIO
    TITLE "0:"
    INDEX 01 00:36:58
  TRACK 35 AUDIO
    TITLE "4:cjc044_6569"
    INDEX 01 00:37:32
  TRACK 36 AUDIO
    TITLE "0:"
    INDEX 01 00:38:51
  TRACK 37 AUDIO
    TITLE "2:cjc044_6570"
    INDEX 01 00:40:24
  TRACK 38 AUDIO
    TITLE "0:"
    INDEX 01 00:41:40
  TRACK 39 AUDIO
    TITLE "3:cjc044_6571"
    INDEX 01 00:42:12
  TRACK 40 AUDIO
    TITLE "0:"
    INDEX 01 00:43:15
  TRACK 41 AUDIO
    TITLE "4:cjc044_6572"
    INDEX 01 00:43:64
  TRACK 42 AUDIO
    TITLE "0:"
    INDEX 01 00:45:04
  TRACK 43 AUDIO
    TITLE "2:cjc044_6573"
    INDEX 01 00:46:51
  TRACK 44 AUDIO
    TITLE "0:"
    INDEX 01 00:48:08
  TRACK 45 AUDIO
    TITLE "3:cjc044_6574"
    INDEX 01 00:48:55
  TRACK 46 AUDIO
    TITLE "0:"
    INDEX 01 00:50:64
  TRACK 47 AUDIO
    TITLE "4:cjc044_6575"
    INDEX 01 00:51:36
  TRACK 48 AUDIO
    TITLE "0:"
    INDEX 01 00:52:67
  TRACK 49 AUDIO
    TITLE "2:cjc044_6576"
    INDEX 01 00:54:40
  TRACK 50 AUDIO
    TITLE "0:"
    INDEX 01 00:55:57
  TRACK 51 AUDIO
    TITLE "3:cjc044_6577"
    INDEX 01 00:56:29
  TRACK 52 AUDIO
    TITLE "0:"
    INDEX 01 00:57:25
  TRACK 53 AUDIO
    TITLE "4:cjc044_6578"
    INDEX 01 00:57:70
  TRACK 54 AUDIO
    TITLE "0:"
    INDEX 01 00:59:10
  TRACK 55 AUDIO
    TITLE "2:cjc044_6579"
    INDEX 01 01:00:60
  TRACK 56 AUDIO
    TITLE "0:"
    INDEX 01 01:02:05
  TRACK 57 AUDIO
    TITLE "3:cjc044_6580"
    INDEX 01 01:02:52
  TRACK 58 AUDIO
    TITLE "0:"
    INDEX 01 01:03:45
  TRACK 59 AUDIO
    TITLE "4:cjc044_6581"
    INDEX 01 01:04:17
  TRACK 60 AUDIO
    TITLE "0:"
    INDEX 01 01:05:36
  TRACK 61 AUDIO
    TITLE "2:cjc044_6582"
    INDEX 01 01:07:14
  TRACK 62 AUDIO
    TITLE "0:"
    INDEX 01 01:08:44
  TRACK 63 AUDIO
    TITLE "3:cjc044_6583"
    INDEX 01 01:09:14
  TRACK 64 AUDIO
    TITLE "0:"
    INDEX 01 01:10:31
  TRACK 65 AUDIO
    TITLE "4:cjc044_6584"
    INDEX 01 01:11:03
  TRACK 66 AUDIO
    TITLE "0:"
    INDEX 01 01:12:34
  TRACK 67 AUDIO
    TITLE "2:cjc044_6585"
    INDEX 01 01:14:06
  TRACK 68 AUDIO
    TITLE "0:"
    INDEX 01 01:15:52
  TRACK 69 AUDIO
    TITLE "3:cjc044_6586"
    INDEX 01 01:16:20
  TRACK 70 AUDIO
    TITLE "0:"
    INDEX 01 01:17:41
  TRACK 71 AUDIO
    TITLE "4:cjc044_6587"
    INDEX 01 01:18:13
  TRACK 72 AUDIO
    TITLE "0:"
    INDEX 01 01:19:58
  TRACK 73 AUDIO
    TITLE "2:cjc044_6588"
    INDEX 01 01:21:29
  TRACK 74 AUDIO
    TITLE "0:"
    INDEX 01 01:22:70
  TRACK 75 AUDIO
    TITLE "3:cjc044_6589"
    INDEX 01 01:23:44
  TRACK 76 AUDIO
    TITLE "0:"
    INDEX 01 01:24:55
  TRACK 77 AUDIO
    TITLE "4:cjc044_6590"
    INDEX 01 01:25:31
  TRACK 78 AUDIO
    TITLE "0:"
    INDEX 01 01:26:70
  TRACK 79 AUDIO
    TITLE "2:cjc044_6591"
    INDEX 01 01:28:43
  TRACK 80 AUDIO
    TITLE "0:"
    INDEX 01 01:30:13
  TRACK 81 AUDIO
    TITLE "3:cjc044_6592"
    INDEX 01 01:30:56
  TRACK 82 AUDIO
    TITLE "0:"
    INDEX 01 01:32:17
  TRACK 83 AUDIO
    TITLE "4:cjc044_6593"
    INDEX 01 01:32:66
  TRACK 84 AUDIO
    TITLE "0:"
    INDEX 01 01:34:34
  TRACK 85 AUDIO
    TITLE "2:cjc044_6594"
    INDEX 01 01:36:05
  TRACK 86 AUDIO
    TITLE "0:"
    INDEX 01 01:37:03
  TRACK 87 AUDIO
    TITLE "3:cjc044_6595"
    INDEX 01 01:37:54
  TRACK 88 AUDIO
    TITLE "0:"
    INDEX 01 01:39:55
  TRACK 89 AUDIO
    TITLE "4:cjc044_6596"
    INDEX 01 01:40:25
  TRACK 90 AUDIO
    TITLE "0:"
    INDEX 01 01:41:24
  TRACK 91 AUDIO
    TITLE "2:cjc044_6597"
    INDEX 01 01:43:02
  TRACK 92 AUDIO
    TITLE "0:"
    INDEX 01 01:44:15
  TRACK 93 AUDIO
    TITLE "3:cjc044_6598"
    INDEX 01 01:44:62
  TRACK 94 AUDIO
    TITLE "0:"
    INDEX 01 01:46:00
  TRACK 95 AUDIO
    TITLE "4:cjc044_6599"
    INDEX 01 01:46:51
  TRACK 96 AUDIO
    TITLE "0:"
    INDEX 01 01:47:64
  TRACK 97 AUDIO
    TITLE "2:cjc044_6600"
    INDEX 01 01:49:39
  TRACK 98 AUDIO
    TITLE "0:"
    INDEX 01 01:50:66
  TRACK 99 AUDIO
    TITLE "3:cjc044_6601"
    INDEX 01 01:51:46
  TRACK 100 AUDIO
    TITLE "0:"
    INDEX 01 01:52:59
  TRACK 101 AUDIO
    TITLE "4:cjc044_6602"
    INDEX 01 01:53:33
  TRACK 102 AUDIO
    TITLE "0:"
    INDEX 01 01:54:64
  TRACK 103 AUDIO
    TITLE "2:cjc044_6603"
    INDEX 01 01:56:43
  TRACK 104 AUDIO
    TITLE "0:"
    INDEX 01 01:57:70
  TRACK 105 AUDIO
    TITLE "3:cjc044_6604"
    INDEX 01 01:58:44
  TRACK 106 AUDIO
    TITLE "0:"
    INDEX 01 01:59:53
  TRACK 107 AUDIO
    TITLE "4:cjc044_6605"
    INDEX 01 02:00:29
  TRACK 108 AUDIO
    TITLE "0:"
    INDEX 01 02:01:58
